<?xml version="1.0" standalone="no"?>
<!DOCTYPE svg PUBLIC "-//W3C//DTD SVG 20010904//EN"
 "http://www.w3.org/TR/2001/REC-SVG-20010904/DTD/svg10.dtd">
<svg version="1.0" xmlns="http://www.w3.org/2000/svg"
 width="384.000000pt" height="384.000000pt" viewBox="0 0 384.000000 384.000000"
 preserveAspectRatio="xMidYMid meet">
<metadata>
Created by potrace 1.10, written by Peter Selinger 2001-2011
</metadata>
<g transform="translate(0.000000,384.000000) scale(0.100000,-0.100000)"
fill="#000000" stroke="none">
<path d="M1528 2762 c-31 -9 -69 -28 -83 -40 -15 -13 -40 -28 -56 -34 -19 -6
-44 -33 -75 -81 -39 -59 -49 -83 -57 -141 -18 -135 26 -167 100 -73 23 28 55
63 70 78 36 32 183 95 246 104 26 4 50 11 53 16 3 5 27 9 55 9 53 0 89 24 89
58 0 22 -53 74 -99 97 -50 25 -172 29 -243 7z m120 -93 c3 -17 -85 -69 -117
-69 -9 0 -33 -11 -53 -25 -37 -25 -68 -25 -68 1 0 8 4 14 9 14 5 0 20 9 33 20
68 61 189 97 196 59z"/>
<path d="M2071 2771 c-18 -5 -52 -22 -75 -39 -37 -27 -41 -34 -41 -73 0 -43 1
-44 35 -47 68 -5 225 -46 246 -64 12 -10 37 -21 57 -25 23 -3 39 -12 42 -24 4
-11 23 -31 43 -46 20 -15 55 -47 78 -70 62 -65 92 -54 109 40 5 24 0 49 -15
86 -13 28 -26 51 -31 51 -4 0 -11 10 -15 23 -18 57 -59 97 -152 143 -83 42
-101 48 -170 50 -42 2 -92 -1 -111 -5z m253 -104 c22 -15 25 -21 16 -37 -16
-30 -45 -42 -74 -30 -28 10 -35 30 -12 30 22 0 30 19 10 27 -10 4 -20 0 -26
-10 -10 -20 -43 -23 -54 -5 -4 6 2 19 14 29 27 21 90 19 126 -4z m106 -98 c7
-12 6 -26 -2 -43 -13 -30 -21 -32 -38 -11 -7 8 -18 15 -26 15 -27 0 -27 24 1
46 30 24 50 22 65 -7z"/>
<path d="M1758 2521 c-57 -19 -61 -37 -15 -78 17 -16 45 -47 60 -70 48 -69 77
-65 77 10 0 40 -18 127 -29 138 -15 16 -49 16 -93 0z"/>
<path d="M1973 2520 l-23 -9 0 -275 0 -274 28 -5 c15 -3 69 -5 120 -5 95 0
122 10 122 45 0 32 133 191 187 223 47 27 44 59 -9 111 -81 79 -233 169 -284
169 -17 0 -48 7 -67 15 -41 17 -44 17 -74 5z m163 -105 c16 -10 30 -12 51 -6
38 11 51 3 49 -29 -1 -22 4 -26 39 -30 36 -5 40 -8 41 -35 0 -16 4 -38 8 -48
12 -26 -9 -44 -44 -39 -18 3 -30 0 -30 -7 0 -6 10 -11 23 -12 l22 0 -22 -16
c-13 -8 -23 -24 -23 -35 0 -26 -85 -109 -104 -102 -9 4 -21 -6 -31 -25 -8 -17
-21 -31 -28 -31 -40 0 -70 197 -48 315 7 40 8 61 1 63 -14 5 -12 39 3 45 25
11 73 7 93 -8z"/>
<path d="M1535 2436 c-16 -7 -65 -48 -107 -91 -88 -88 -96 -113 -54 -168 23
-30 43 -107 48 -187 l3 -35 200 -1 c163 0 203 2 218 14 14 13 17 33 17 130 l0
114 -38 37 c-21 20 -51 44 -66 54 -15 11 -30 27 -34 37 -4 10 -26 39 -50 64
-47 50 -79 58 -137 32z m110 -103 c14 -15 25 -33 25 -40 0 -6 9 -14 19 -18 11
-3 23 -16 27 -28 4 -12 20 -34 35 -50 26 -26 29 -34 25 -83 -2 -30 -6 -57 -9
-60 -3 -3 -34 -7 -70 -9 -35 -1 -74 -8 -86 -15 -20 -10 -27 -8 -50 13 -20 20
-29 23 -43 14 -25 -17 -51 9 -43 44 5 20 0 36 -15 57 l-22 30 23 48 c12 27 23
56 24 64 1 8 3 21 4 28 1 10 10 12 29 7 20 -4 33 -1 42 10 19 23 56 18 85 -12z"/>
<path d="M1107 2198 c-62 -87 -87 -141 -98 -207 -8 -53 -6 -79 20 -206 15 -76
97 -188 152 -207 39 -14 58 3 94 85 30 66 83 130 125 150 37 18 33 50 -8 58
-49 10 -61 33 -62 114 0 62 -5 80 -40 149 -75 150 -113 163 -183 64z m118
-115 c3 -21 10 -46 16 -55 5 -10 9 -27 9 -37 0 -11 4 -22 8 -25 5 -3 7 -30 4
-61 -4 -51 -3 -55 17 -55 34 0 29 -48 -7 -61 -17 -6 -32 -21 -39 -39 -9 -24
-17 -30 -40 -30 -41 0 -73 26 -73 59 0 16 -7 48 -15 71 -8 23 -15 46 -15 51 0
5 7 9 15 9 9 0 15 9 15 21 0 18 -2 20 -16 8 -36 -30 -48 61 -13 105 26 33 35
33 44 -1 6 -27 7 -27 21 -8 9 12 12 30 9 44 -7 26 7 41 37 41 12 0 19 -11 23
-37z"/>
<path d="M2580 2250 c0 -6 -12 -22 -27 -36 -25 -23 -62 -115 -63 -154 0 -8 -7
-28 -16 -45 -22 -41 -22 -119 -1 -143 12 -13 17 -36 17 -80 0 -33 4 -63 9 -67
5 -3 15 -22 22 -43 16 -49 67 -112 92 -112 21 0 108 87 134 135 30 53 53 128
59 190 5 53 2 71 -31 155 -20 52 -40 99 -46 105 -5 5 -9 17 -9 27 0 10 -13 24
-28 32 -16 8 -34 22 -41 30 -15 18 -71 22 -71 6z m64 -154 c14 -19 26 -41 26
-48 0 -8 7 -23 15 -34 8 -10 15 -35 15 -55 0 -20 7 -53 15 -72 19 -45 20 -66
3 -49 -18 18 -48 -14 -48 -53 0 -37 -15 -55 -47 -55 -17 0 -24 7 -28 28 -3 15
-13 41 -21 57 -22 45 -21 178 1 245 28 85 30 87 69 36z"/>
<path d="M2372 2078 c-16 -23 -42 -54 -56 -67 -44 -42 -26 -82 28 -61 35 13
64 56 72 106 10 67 -7 75 -44 22z"/>
<path d="M2323 1874 c-24 -10 -13 -33 33 -63 47 -32 64 -33 64 -2 0 40 -61 80
-97 65z"/>
<path d="M1600 1859 c-31 -6 -53 -18 -70 -37 -14 -16 -33 -32 -42 -35 -10 -4
-18 -12 -18 -19 0 -7 -10 -18 -22 -23 -12 -6 -33 -26 -46 -45 -12 -19 -32 -46
-42 -60 -11 -13 -20 -32 -20 -42 0 -22 57 -88 76 -88 8 0 14 -8 14 -18 0 -17
27 -46 62 -67 113 -67 151 -84 219 -95 41 -7 84 -16 97 -21 14 -5 31 -5 41 1
16 8 18 31 19 269 0 212 -2 262 -14 272 -17 14 -189 19 -254 8z m167 -105 c20
-34 23 -54 23 -146 0 -61 -4 -109 -10 -113 -5 -3 -10 -26 -10 -51 0 -46 -20
-68 -42 -46 -6 6 -30 8 -60 5 -42 -5 -52 -3 -73 17 -14 13 -25 33 -25 46 0 43
-40 52 -81 17 -15 -12 -17 -11 -23 11 -3 13 -3 31 0 39 3 8 1 32 -5 52 -14 53
11 114 50 122 16 3 40 20 55 40 25 33 29 35 73 29 33 -4 52 -1 66 9 26 20 36
15 62 -31z"/>
<path d="M1652 1453 c-19 -8 -4 -23 24 -23 16 0 24 5 22 13 -5 13 -26 18 -46
10z"/>
<path d="M1979 1860 c-24 -6 -24 -7 -27 -147 -2 -135 -2 -143 18 -153 12 -6
25 -22 30 -36 5 -13 21 -29 35 -36 14 -6 25 -19 25 -30 0 -10 5 -18 10 -18 6
0 18 -13 28 -30 10 -16 31 -39 46 -51 l28 -22 54 29 c30 16 77 50 104 77 28
26 55 47 60 47 5 0 23 15 39 33 22 22 31 42 31 66 0 35 -19 57 -141 161 -29
25 -69 60 -88 79 -36 34 -37 34 -132 36 -52 0 -106 -2 -120 -5z m192 -91 c24
8 30 7 39 -9 5 -10 10 -28 10 -39 0 -22 27 -41 48 -34 16 6 92 -72 92 -95 -1
-19 -15 -47 -46 -85 -16 -20 -31 -27 -57 -27 -19 0 -37 -6 -40 -12 -3 -10 -18
-8 -62 7 -51 17 -60 24 -67 52 -5 18 -22 41 -39 54 -27 19 -30 26 -24 53 3 17
8 54 11 81 6 64 23 79 71 59 26 -11 43 -13 64 -5z m11 -354 c0 -5 -5 -11 -11
-13 -6 -2 -11 4 -11 13 0 9 5 15 11 13 6 -2 11 -8 11 -13z"/>
<path d="M1276 1483 c-44 -44 -34 -168 18 -234 12 -15 29 -41 38 -58 9 -17 30
-36 45 -43 15 -6 44 -26 63 -44 37 -33 51 -37 198 -50 94 -9 148 11 197 70 19
24 35 48 35 53 0 33 -93 63 -195 63 -30 0 -57 4 -60 10 -7 11 -106 60 -122 60
-5 0 -23 16 -40 35 -17 19 -37 35 -45 35 -7 0 -33 25 -57 55 -42 53 -59 64
-75 48z m154 -215 c0 -17 -18 -44 -24 -37 -8 7 5 49 15 49 5 0 9 -6 9 -12z
m160 -58 c0 -5 15 -16 33 -24 l32 -14 -26 -10 c-15 -6 -33 -12 -40 -13 -20 -5
-130 51 -123 62 7 12 124 11 124 -1z"/>
<path d="M2478 1457 c-14 -12 -34 -37 -42 -54 -12 -24 -23 -33 -41 -33 -15 0
-36 -12 -52 -30 -14 -16 -32 -30 -38 -30 -7 0 -39 -13 -71 -30 -32 -16 -72
-30 -87 -30 -15 0 -44 -7 -64 -15 -19 -8 -53 -15 -74 -15 -42 0 -69 -21 -69
-53 0 -33 9 -41 84 -81 111 -58 209 -50 366 29 27 13 50 29 52 34 1 5 23 32
47 60 73 85 102 200 62 249 -24 28 -39 28 -73 -1z m-55 -198 c23 -27 15 -36
-20 -20 -24 11 -28 10 -49 -16 -13 -15 -23 -33 -24 -39 0 -27 -53 -31 -99 -8
-53 27 -18 44 41 20 12 -6 24 4 48 38 35 52 72 61 103 25z m-205 -112 c2 -10
-3 -17 -12 -17 -10 0 -16 9 -16 21 0 24 23 21 28 -4z"/>
<path d="M1946 1441 c-3 -4 -4 -36 -2 -71 4 -63 14 -80 49 -80 23 0 67 29 67
45 0 14 -89 115 -101 115 -4 0 -10 -4 -13 -9z"/>
</g>
</svg>
