<svg version="1.1" id="Layer_1" xmlns="http://www.w3.org/2000/svg" xmlns:xlink="http://www.w3.org/1999/xlink" x="0px" y="0px"
	 width="100%" viewBox="0 0 128 128" enable-background="new 0 0 128 128" xml:space="preserve">
<path fill="#FFFFFF" opacity="1.000000" stroke="none" 
	d="
M57.000000,129.000000 
	C38.000000,129.000000 19.500000,129.000000 1.000000,129.000000 
	C1.000000,86.333336 1.000000,43.666668 1.000000,1.000000 
	C43.666668,1.000000 86.333336,1.000000 129.000000,1.000000 
	C129.000000,43.666668 129.000000,86.333336 129.000000,129.000000 
	C105.166664,129.000000 81.333336,129.000000 57.000000,129.000000 
M85.236885,41.052364 
	C84.851631,41.008072 84.466385,40.963779 83.707420,40.355934 
	C81.261612,38.816814 78.985115,36.822655 76.333702,35.836094 
	C71.273254,33.953159 66.536301,36.964127 65.708977,42.378323 
	C64.115623,41.913635 62.522263,41.448948 61.016293,40.115547 
	C60.932522,38.775318 60.848751,37.435085 60.768002,36.143200 
	C58.156986,36.143200 56.088627,36.143200 53.495495,35.966370 
	C53.322506,35.901970 53.149517,35.837570 52.366138,35.270733 
	C49.712887,35.270733 47.059635,35.270733 44.140842,35.270733 
	C44.502655,37.595016 44.770206,39.313755 45.024353,41.022400 
	C45.024353,41.022400 45.019859,41.035099 44.211304,40.998398 
	C42.858845,41.180096 41.506390,41.361790 39.723438,41.601322 
	C40.599148,43.609444 41.164371,44.905575 41.837151,46.448349 
	C38.845928,47.391670 33.811192,46.790157 37.453743,52.143192 
	C32.779881,54.648182 32.373062,68.403587 36.889057,73.790154 
	C36.917542,74.191208 36.946026,74.592262 36.220726,75.018936 
	C30.183105,77.656258 37.824364,79.472626 36.476513,81.730988 
	C35.706409,83.007782 34.936306,84.284584 34.166199,85.561378 
	C35.613457,86.037369 37.119095,86.387299 38.492283,87.023232 
	C39.998852,87.720955 41.615086,88.446342 42.770096,89.580658 
	C44.827412,91.601097 46.338821,94.409843 50.760914,93.106033 
	C51.534199,93.245544 52.307484,93.385056 53.432190,93.795708 
	C53.432190,93.795708 53.865463,93.907341 53.865463,93.907341 
	C53.865463,93.907341 54.309853,93.854599 55.009117,93.758430 
	C55.949203,93.778481 56.889294,93.798531 58.422489,93.969292 
	C58.960346,93.750374 59.498203,93.531456 60.516712,93.125168 
	C60.684700,93.088402 60.852684,93.051643 61.719612,93.055511 
	C62.485466,92.376358 63.251316,91.697212 64.709602,90.983292 
	C65.171982,90.969704 65.634361,90.956116 66.646759,91.386414 
	C70.386597,91.964088 74.144775,93.088211 77.861038,92.963455 
	C81.468719,92.842339 84.336655,90.822029 84.399330,86.445129 
	C84.406166,85.967766 85.569237,85.506966 86.829407,85.008682 
	C87.206429,84.334007 87.583443,83.659332 87.932716,82.297943 
	C87.566368,81.218834 87.200020,80.139725 87.544289,78.967766 
	C89.876404,77.647217 92.208519,76.326675 94.904358,74.800179 
	C94.709122,74.004974 94.327782,72.451759 93.979744,70.184921 
	C94.025497,69.473763 94.071243,68.762596 94.539223,67.407112 
	C94.770981,61.589813 94.672699,55.897305 88.938370,51.597660 
	C89.750885,50.341831 90.563400,49.086006 91.686501,47.350140 
	C90.409874,46.937424 89.102180,46.514660 87.526955,45.656322 
	C87.128914,45.359756 86.730873,45.063190 86.192078,44.171776 
	C86.161751,43.766132 86.131432,43.360485 86.704704,42.907749 
	C86.965744,42.466583 87.226784,42.025417 87.487823,41.584251 
	C86.929688,41.429180 86.371552,41.274109 85.236885,41.052364 
M94.552223,82.291718 
	C94.286751,82.012955 94.021271,81.734200 93.755791,81.455429 
	C93.640503,81.565598 93.418846,81.765358 93.425285,81.773003 
	C93.673065,82.067192 93.941719,82.343796 94.552223,82.291718 
z"/>
<path fill="#F3CD1F" opacity="1.000000" stroke="none" 
	d="
M66.104317,41.861767 
	C66.536301,36.964127 71.273254,33.953159 76.333702,35.836094 
	C78.985115,36.822655 81.261612,38.816814 83.937721,40.946468 
	C84.702271,42.075611 85.236511,42.614220 85.883194,43.153145 
	C85.995636,43.153458 86.101105,42.954842 86.101105,42.954842 
	C86.131432,43.360485 86.161751,43.766132 86.183876,44.887455 
	C86.107414,49.139454 85.045227,50.408131 81.792198,47.770542 
	C79.899315,46.235779 77.769814,44.975224 75.672775,43.714348 
	C73.043243,42.133301 72.934723,43.848713 72.877190,46.110424 
	C71.433426,46.607502 70.216866,46.803524 68.651627,46.998302 
	C67.605949,47.003483 66.908951,47.009907 66.201721,46.630028 
	C68.064041,45.496365 69.936592,44.749001 73.281082,43.414162 
	C69.973747,42.698757 68.039032,42.280262 66.104317,41.861767 
z"/>
<path fill="#F1D025" opacity="1.000000" stroke="none" 
	d="
M57.829380,93.818588 
	C56.889294,93.798531 55.949203,93.778481 54.489586,93.645813 
	C53.675217,93.356148 53.378788,93.353279 53.080769,93.524567 
	C52.307484,93.385056 51.534199,93.245544 50.203445,92.793182 
	C43.485340,87.658836 42.025650,84.223938 43.868423,79.609955 
	C45.643330,79.715469 47.291260,79.813438 49.096924,80.221359 
	C51.046688,81.012306 52.895184,82.020409 54.615932,81.836067 
	C56.605698,81.622910 58.206886,80.856949 57.646957,83.927719 
	C56.507332,84.618378 55.739574,85.237450 54.196178,86.481956 
	C57.496326,86.881363 59.723042,87.150848 61.984154,87.723419 
	C62.269981,88.976570 62.521404,89.926659 62.528591,91.022568 
	C61.863129,91.783890 61.441898,92.399384 61.020672,93.014877 
	C60.852684,93.051643 60.684700,93.088402 59.984650,93.147285 
	C58.911518,93.385796 58.370449,93.602196 57.829380,93.818588 
z"/>
<path fill="#FBF9E7" opacity="1.000000" stroke="none" 
	d="
M48.939190,79.911407 
	C47.291260,79.813438 45.643330,79.715469 43.868423,79.609955 
	C42.025650,84.223938 43.485340,87.658836 49.808334,92.784607 
	C46.338821,94.409843 44.827412,91.601097 42.770096,89.580658 
	C41.615086,88.446342 39.998852,87.720955 38.492283,87.023232 
	C37.119095,86.387299 35.613457,86.037369 34.166199,85.561378 
	C34.936306,84.284584 35.706409,83.007782 36.476513,81.730988 
	C37.824364,79.472626 30.183105,77.656258 36.897568,75.013535 
	C37.973534,75.021896 38.372658,75.035660 39.106422,75.148178 
	C41.179230,74.414925 42.917404,73.582924 44.973442,72.709412 
	C45.525940,72.111031 45.760574,71.554169 45.997604,70.998657 
	C46.000000,71.000000 45.997227,70.994987 46.239071,71.179398 
	C46.675430,71.931747 46.869946,72.499695 47.036671,73.465820 
	C47.652317,75.879807 48.295753,77.895615 48.939190,79.911407 
z"/>
<path fill="#F9CE12" opacity="1.000000" stroke="none" 
	d="
M94.116989,68.051437 
	C94.071243,68.762596 94.025497,69.473763 93.603874,70.627380 
	C91.023460,74.102837 88.467216,75.535416 84.872086,72.582779 
	C83.801277,72.018829 82.869965,71.747589 82.004486,71.082886 
	C86.016602,67.051727 82.065819,62.935028 82.892532,58.826263 
	C83.380211,58.084805 83.748589,57.617958 84.391281,57.010262 
	C85.207497,56.254704 85.749420,55.639999 86.627205,55.118504 
	C87.843704,56.443672 88.773994,57.643639 89.593147,58.915207 
	C90.775398,60.750431 91.967392,62.590321 92.977615,64.521149 
	C93.542610,65.601013 93.749008,66.868500 94.116989,68.051437 
z"/>
<path fill="#F4CF16" opacity="1.000000" stroke="none" 
	d="
M86.196014,85.038483 
	C85.569237,85.506966 84.406166,85.967766 84.399330,86.445129 
	C84.336655,90.822029 81.468719,92.842339 77.861038,92.963455 
	C74.144775,93.088211 70.386597,91.964088 66.370186,90.865234 
	C66.096878,89.944672 66.100151,89.545288 66.453705,89.017365 
	C69.869591,87.589432 72.935204,86.290031 76.371597,84.968636 
	C78.502808,83.949570 80.323967,83.044365 82.007576,81.931137 
	C83.915825,80.669365 85.484627,80.025780 86.103645,83.391403 
	C86.110115,84.160316 86.153061,84.599396 86.196014,85.038483 
z"/>
<path fill="#FBF7DF" opacity="1.000000" stroke="none" 
	d="
M36.758381,73.203529 
	C32.373062,68.403587 32.779881,54.648182 37.453743,52.143192 
	C33.811192,46.790157 38.845928,47.391670 41.837151,46.448349 
	C41.164371,44.905575 40.599148,43.609444 39.723438,41.601322 
	C41.506390,41.361790 42.858845,41.180096 44.527351,41.380535 
	C43.063988,45.535503 41.041492,49.343555 46.242607,52.485672 
	C45.991665,54.241997 45.838085,55.603436 45.684509,56.964878 
	C45.252384,57.218071 44.820259,57.471264 44.388134,57.724457 
	C43.552536,55.804787 42.716938,53.885113 41.962440,52.151760 
	C33.569408,58.961952 33.990421,65.753204 36.944408,73.049484 
	C36.884098,73.102852 36.758381,73.203529 36.758381,73.203529 
z"/>
<path fill="#F4CE22" opacity="1.000000" stroke="none" 
	d="
M46.339966,52.090786 
	C41.041492,49.343555 43.063988,45.535503 44.931629,41.398888 
	C45.019859,41.035099 45.024353,41.022400 45.356647,40.886097 
	C48.118137,39.090919 50.547329,37.432041 52.976524,35.773167 
	C53.149517,35.837570 53.322506,35.901970 53.755524,36.404469 
	C54.495094,38.000690 54.974636,39.158813 55.452236,40.312256 
	C52.491837,41.726952 52.491837,41.726952 54.258163,43.512146 
	C54.067390,44.144196 53.968487,44.508411 53.853836,44.903854 
	C53.838089,44.935074 53.832932,44.865108 53.478996,44.848099 
	C52.073200,45.218746 51.021343,45.606403 49.899849,46.366867 
	C49.889942,47.491478 49.949673,48.243286 49.736984,49.226631 
	C49.302914,50.636688 49.141251,51.815208 48.695156,52.981152 
	C47.720470,52.675983 47.030216,52.383385 46.339966,52.090786 
z"/>
<path fill="#FBF6CD" opacity="1.000000" stroke="none" 
	d="
M65.906647,42.120045 
	C68.039032,42.280262 69.973747,42.698757 73.281082,43.414162 
	C69.936592,44.749001 68.064041,45.496365 66.128555,46.970154 
	C66.120804,48.153950 66.175995,48.611317 66.174324,49.400597 
	C65.804756,50.519367 65.492050,51.306225 64.879410,51.896355 
	C62.813183,48.119503 61.218937,44.223263 55.990437,47.009861 
	C55.999107,46.999847 55.985912,47.020493 55.820915,46.761379 
	C55.048260,45.956547 54.440598,45.410828 53.832932,44.865108 
	C53.832932,44.865108 53.838089,44.935074 54.179058,44.936287 
	C55.347233,44.332047 56.174435,43.726589 57.303009,42.981537 
	C58.712559,42.222710 59.820732,41.603489 60.928905,40.984268 
	C62.522263,41.448948 64.115623,41.913635 65.906647,42.120045 
z"/>
<path fill="#F4E48F" opacity="1.000000" stroke="none" 
	d="
M73.104393,45.809368 
	C72.934723,43.848713 73.043243,42.133301 75.672775,43.714348 
	C77.769814,44.975224 79.899315,46.235779 81.792198,47.770542 
	C85.045227,50.408131 86.107414,49.139454 86.254257,45.184879 
	C86.730873,45.063190 87.128914,45.359756 87.661057,46.247910 
	C87.830627,51.006908 85.026886,51.190933 81.602814,50.970692 
	C79.623856,50.230106 77.998695,49.519825 76.203964,48.535778 
	C75.057724,47.444469 74.081062,46.626919 73.104393,45.809368 
z"/>
<path fill="#FCF8DA" opacity="1.000000" stroke="none" 
	d="
M85.011589,72.875488 
	C88.467216,75.535416 91.023460,74.102837 93.587219,70.984192 
	C94.327782,72.451759 94.709122,74.004974 94.904358,74.800179 
	C92.208519,76.326675 89.876404,77.647217 86.921646,79.158401 
	C85.275536,78.627922 84.252075,77.906815 83.448540,76.930931 
	C84.116173,75.409264 84.563881,74.142372 85.011589,72.875488 
z"/>
<path fill="#EFD21E" opacity="1.000000" stroke="none" 
	d="
M94.328102,67.729279 
	C93.749008,66.868500 93.542610,65.601013 92.977615,64.521149 
	C91.967392,62.590321 90.775398,60.750431 89.593147,58.915207 
	C88.773994,57.643639 87.843704,56.443672 86.672623,54.846115 
	C87.205803,53.776344 88.029419,53.072174 88.853043,52.368004 
	C94.672699,55.897305 94.770981,61.589813 94.328102,67.729279 
z"/>
<path fill="#F7CF03" opacity="1.000000" stroke="none" 
	d="
M60.972599,40.549908 
	C59.820732,41.603489 58.712559,42.222710 56.970795,42.934265 
	C55.674812,43.099167 55.012417,43.171741 54.350025,43.244316 
	C52.491837,41.726952 52.491837,41.726952 55.452236,40.312256 
	C54.974636,39.158813 54.495094,38.000690 54.017914,36.492882 
	C56.088627,36.143200 58.156986,36.143200 60.768002,36.143200 
	C60.848751,37.435085 60.932522,38.775318 60.972599,40.549908 
z"/>
<path fill="#F9FCEA" opacity="1.000000" stroke="none" 
	d="
M88.895706,51.982834 
	C88.029419,53.072174 87.205803,53.776344 86.336761,54.752907 
	C85.749420,55.639999 85.207497,56.254704 84.126488,56.858994 
	C83.354340,56.521473 83.121284,56.194366 82.927567,55.504585 
	C82.630142,53.761604 82.293373,52.381298 81.956604,51.000992 
	C85.026886,51.190933 87.830627,51.006908 87.794823,46.465698 
	C89.102180,46.514660 90.409874,46.937424 91.686501,47.350140 
	C90.563400,49.086006 89.750885,50.341831 88.895706,51.982834 
z"/>
<path fill="#F7ED9B" opacity="1.000000" stroke="none" 
	d="
M83.228615,77.185715 
	C84.252075,77.906815 85.275536,78.627922 86.566330,79.204819 
	C87.200020,80.139725 87.566368,81.218834 87.642883,82.635086 
	C86.948746,83.002007 86.544434,83.031784 86.140121,83.061569 
	C85.484627,80.025780 83.915825,80.669365 82.007576,81.931137 
	C80.323967,83.044365 78.502808,83.949570 76.469910,84.722198 
	C76.467575,84.041061 76.737717,83.584366 77.176193,82.826714 
	C79.212936,80.671844 81.081360,78.817924 83.019653,77.019211 
	C83.089539,77.074425 83.228615,77.185715 83.228615,77.185715 
z"/>
<path fill="#F7F9D9" opacity="1.000000" stroke="none" 
	d="
M52.671333,35.521950 
	C50.547329,37.432041 48.118137,39.090919 45.363350,40.891144 
	C44.770206,39.313755 44.502655,37.595016 44.140842,35.270733 
	C47.059635,35.270733 49.712887,35.270733 52.671333,35.521950 
z"/>
<path fill="#FAF1BA" opacity="1.000000" stroke="none" 
	d="
M66.103424,89.145912 
	C66.100151,89.545288 66.096878,89.944672 66.095177,90.643288 
	C65.634361,90.956116 65.171982,90.969704 64.338821,90.975494 
	C63.968048,90.967697 63.919052,90.917801 63.944813,90.596664 
	C63.905499,89.292435 63.840420,88.309341 63.707375,86.299400 
	C64.950035,87.775688 65.526733,88.460800 66.103424,89.145912 
z"/>
<path fill="#FCF8DA" opacity="1.000000" stroke="none" 
	d="
M86.103645,83.391403 
	C86.544434,83.031784 86.948746,83.002007 87.656754,82.978439 
	C87.583443,83.659332 87.206429,84.334007 86.512711,85.023582 
	C86.153061,84.599396 86.110115,84.160316 86.103645,83.391403 
z"/>
<path fill="#FAF1BA" opacity="1.000000" stroke="none" 
	d="
M61.370140,93.035194 
	C61.441898,92.399384 61.863129,91.783890 62.814995,91.052818 
	C63.536774,90.930763 63.727913,90.924278 63.919052,90.917801 
	C63.919052,90.917801 63.968048,90.967697 63.992607,90.992882 
	C63.251316,91.697212 62.485466,92.376358 61.370140,93.035194 
z"/>
<path fill="#F9FCEA" opacity="1.000000" stroke="none" 
	d="
M85.813416,41.119038 
	C86.371552,41.274109 86.929688,41.429180 87.487823,41.584251 
	C87.226784,42.025417 86.965744,42.466583 86.402908,42.931297 
	C86.101105,42.954842 85.995636,43.153458 85.941315,42.815384 
	C85.862465,42.024551 85.837944,41.571796 85.813416,41.119038 
z"/>
<path fill="#FCF8DA" opacity="1.000000" stroke="none" 
	d="
M94.379921,82.457214 
	C93.941719,82.343796 93.673065,82.067192 93.425285,81.773003 
	C93.418846,81.765358 93.640503,81.565598 93.755798,81.455429 
	C94.021271,81.734200 94.286751,82.012955 94.379921,82.457214 
z"/>
<path fill="#F4E48F" opacity="1.000000" stroke="none" 
	d="
M85.525154,41.085701 
	C85.837944,41.571796 85.862465,42.024551 85.828873,42.815071 
	C85.236511,42.614220 84.702271,42.075611 84.124573,41.228241 
	C84.466385,40.963779 84.851631,41.008072 85.525154,41.085701 
z"/>
<path fill="#FBF7DF" opacity="1.000000" stroke="none" 
	d="
M38.771786,75.049431 
	C38.372658,75.035660 37.973534,75.021896 37.274456,75.000717 
	C36.946026,74.592262 36.917542,74.191208 36.823719,73.496841 
	C36.758381,73.203529 36.884098,73.102852 37.203476,73.160210 
	C37.939163,73.828186 38.355476,74.438812 38.771786,75.049431 
z"/>
<path fill="#FAF1BA" opacity="1.000000" stroke="none" 
	d="
M58.125935,93.893936 
	C58.370449,93.602196 58.911518,93.385796 59.744324,93.240967 
	C59.498203,93.531456 58.960346,93.750374 58.125935,93.893936 
z"/>
<path fill="#FBF9E7" opacity="1.000000" stroke="none" 
	d="
M53.256477,93.660141 
	C53.378788,93.353279 53.675217,93.356148 54.139954,93.693893 
	C54.309853,93.854599 53.865463,93.907341 53.865463,93.907341 
	C53.865463,93.907341 53.432190,93.795708 53.256477,93.660141 
z"/>
<path fill="#F6CE0E" opacity="1.000000" stroke="none" 
	d="
M66.231186,49.068687 
	C66.175995,48.611317 66.120804,48.153950 66.138786,47.356453 
	C66.908951,47.009907 67.605949,47.003483 68.704941,47.343269 
	C70.073624,48.128067 71.040321,48.566662 72.051086,49.333012 
	C72.734619,50.766991 73.374084,51.873219 73.674149,52.990395 
	C72.715668,53.361397 72.096581,53.721451 71.477501,54.081501 
	C75.268166,57.233173 72.287735,60.024925 70.634216,62.965771 
	C69.508179,62.974796 68.756302,62.925148 68.002808,62.493755 
	C67.502060,60.491962 67.002922,58.871910 66.503792,57.251862 
	C66.156990,57.337456 65.810188,57.423054 65.463379,57.508648 
	C64.972778,59.329792 64.482170,61.150932 63.971954,63.213020 
	C63.952343,63.453968 63.822983,63.919834 63.388992,63.931870 
	C58.641132,63.909317 54.327255,63.874722 50.009544,63.450104 
	C50.513138,61.101757 51.020565,59.143433 51.556301,57.075851 
	C50.691364,56.823490 49.557636,56.492699 48.322216,56.132240 
	C51.035740,54.702114 53.365616,53.474186 55.695492,52.246254 
	C55.440834,51.777328 55.186172,51.308399 54.931515,50.839474 
	C53.977581,51.350391 53.064575,51.973782 52.058022,52.340115 
	C51.081879,52.695374 50.009632,52.786560 48.979591,52.993725 
	C49.141251,51.815208 49.302914,50.636688 50.016407,49.156837 
	C51.089111,48.301029 51.609982,47.746548 52.514473,47.146294 
	C53.927368,47.073845 54.956638,47.047169 55.985912,47.020493 
	C55.985912,47.020493 55.999107,46.999847 56.098007,47.329975 
	C58.172276,50.006390 60.147648,52.352673 62.111336,55.015347 
	C62.435417,55.752983 62.771183,56.174236 63.106949,56.595486 
	C63.404705,56.116810 63.702457,55.638130 64.217239,55.092049 
	C64.434280,55.024643 64.883636,54.956287 65.253914,54.910652 
	C65.826523,52.932903 66.028854,51.000797 66.231186,49.068687 
z"/>
<path fill="#F6CE12" opacity="1.000000" stroke="none" 
	d="
M72.007019,49.005260 
	C71.040321,48.566662 70.073624,48.128067 69.053619,47.344505 
	C70.216866,46.803524 71.433426,46.607502 72.877190,46.110424 
	C74.081062,46.626919 75.057724,47.444469 75.762764,48.597572 
	C74.329765,48.957172 73.168388,48.981216 72.007019,49.005260 
z"/>
<path fill="#F8CE12" opacity="1.000000" stroke="none" 
	d="
M49.096924,80.221359 
	C48.295753,77.895615 47.652317,75.879807 47.320168,73.269608 
	C51.445377,68.307564 55.907341,65.599541 61.999737,67.475861 
	C61.998474,71.816338 62.281803,75.777412 61.853798,79.660080 
	C61.682892,81.210518 59.942165,82.587898 58.690086,84.004959 
	C58.464134,83.965851 58.018829,83.856133 58.018829,83.856133 
	C58.206886,80.856949 56.605698,81.622910 54.615932,81.836067 
	C52.895184,82.020409 51.046688,81.012306 49.096924,80.221359 
z"/>
<path fill="#F6E7A2" opacity="1.000000" stroke="none" 
	d="
M63.944813,90.596664 
	C63.727913,90.924278 63.536774,90.930763 63.059235,90.906990 
	C62.521404,89.926659 62.269981,88.976570 61.869614,87.391502 
	C60.855667,86.097023 59.990669,85.437538 59.544209,84.838318 
	C61.843121,84.898598 63.723492,84.898598 65.800232,84.898598 
	C65.800232,81.823433 65.800232,79.539543 65.800232,76.206116 
	C69.960297,79.509903 71.715546,84.440727 77.007866,83.127663 
	C76.737717,83.584366 76.467575,84.041061 76.099121,84.744202 
	C72.935204,86.290031 69.869591,87.589432 66.453705,89.017365 
	C65.526733,88.460800 64.950035,87.775688 63.707375,86.299400 
	C63.840420,88.309341 63.905499,89.292435 63.944813,90.596664 
z"/>
<path fill="#FAF1BA" opacity="1.000000" stroke="none" 
	d="
M59.125671,84.778046 
	C59.990669,85.437538 60.855667,86.097023 61.835209,87.088425 
	C59.723042,87.150848 57.496326,86.881363 54.196178,86.481956 
	C55.739574,85.237450 56.507332,84.618378 57.646957,83.927719 
	C58.018829,83.856133 58.464134,83.965851 58.741104,84.188828 
	C59.018070,84.411812 59.125671,84.778046 59.125671,84.778046 
z"/>
<path fill="#F4CF18" opacity="1.000000" stroke="none" 
	d="
M48.695156,52.981152 
	C50.009632,52.786560 51.081879,52.695374 52.058022,52.340115 
	C53.064575,51.973782 53.977581,51.350391 54.931515,50.839474 
	C55.186172,51.308399 55.440834,51.777328 55.695492,52.246254 
	C53.365616,53.474186 51.035740,54.702114 48.322216,56.132240 
	C49.557636,56.492699 50.691364,56.823490 51.556301,57.075851 
	C51.020565,59.143433 50.513138,61.101757 49.667088,63.370232 
	C48.508484,64.130486 47.158031,64.422607 46.968086,65.060364 
	C46.400551,66.965919 46.287659,69.006897 45.997227,70.994987 
	C45.997227,70.994987 46.000000,71.000000 45.712090,71.092178 
	C45.167973,71.706551 44.911774,72.228737 44.655575,72.750923 
	C42.917404,73.582924 41.179230,74.414925 39.106422,75.148178 
	C38.355476,74.438812 37.939163,73.828186 37.263786,73.106842 
	C33.990421,65.753204 33.569408,58.961952 41.962440,52.151760 
	C42.716938,53.885113 43.552536,55.804787 44.388134,57.724457 
	C44.820259,57.471264 45.252384,57.218071 45.684509,56.964878 
	C45.838085,55.603436 45.991665,54.241997 46.242607,52.485672 
	C47.030216,52.383385 47.720470,52.675983 48.695156,52.981152 
z"/>
<path fill="#F8EFA3" opacity="1.000000" stroke="none" 
	d="
M46.239071,71.179398 
	C46.287659,69.006897 46.400551,66.965919 46.968086,65.060364 
	C47.158031,64.422607 48.508484,64.130486 49.670921,63.760254 
	C54.327255,63.874722 58.641132,63.909317 63.833549,63.955540 
	C66.484177,63.989994 68.256256,64.012825 70.019989,64.355995 
	C70.022179,65.103447 70.032715,65.530540 69.642563,65.971649 
	C67.802605,66.373993 66.363358,66.762337 64.557648,67.159973 
	C63.460449,67.134521 62.729710,67.099762 61.998966,67.065002 
	C55.907341,65.599541 51.445377,68.307564 47.347961,72.871422 
	C46.869946,72.499695 46.675430,71.931747 46.239071,71.179398 
z"/>
<path fill="#F8EFA3" opacity="1.000000" stroke="none" 
	d="
M44.973442,72.709412 
	C44.911774,72.228737 45.167973,71.706551 45.709690,71.090836 
	C45.760574,71.554169 45.525940,72.111031 44.973442,72.709412 
z"/>
<path fill="#F8F2B7" opacity="1.000000" stroke="none" 
	d="
M70.043259,65.957642 
	C70.032715,65.530540 70.022179,65.103447 70.373222,64.347778 
	C71.819695,63.743710 72.904579,63.468204 74.262413,63.083305 
	C75.015892,62.645767 75.496429,62.317623 76.293411,62.120968 
	C80.358994,64.516098 80.426804,59.580391 82.773247,59.100876 
	C82.065819,62.935028 86.016602,67.051727 82.023872,71.075577 
	C81.977425,71.461739 82.016144,71.470238 81.684525,71.562759 
	C78.889519,70.013771 76.426147,68.372261 73.705353,66.508766 
	C72.313042,66.177078 71.178154,66.067360 70.043259,65.957642 
z"/>
<path fill="#F7E597" opacity="1.000000" stroke="none" 
	d="
M82.892532,58.826263 
	C80.426804,59.580391 80.358994,64.516098 76.287781,61.759327 
	C77.347069,59.193459 78.728462,57.120720 80.405762,55.054375 
	C81.430519,55.329601 82.159378,55.598434 82.888229,55.867264 
	C83.121284,56.194366 83.354340,56.521473 83.852188,56.999844 
	C83.748589,57.617958 83.380211,58.084805 82.892532,58.826263 
z"/>
<path fill="#F7ED9B" opacity="1.000000" stroke="none" 
	d="
M82.016144,71.470238 
	C82.016144,71.470238 81.977425,71.461739 81.958038,71.469040 
	C82.869965,71.747589 83.801277,72.018829 84.872086,72.582779 
	C84.563881,74.142372 84.116173,75.409264 83.448540,76.930931 
	C83.228615,77.185715 83.089539,77.074425 83.054855,76.625549 
	C82.685501,74.607864 82.350822,73.039047 82.016144,71.470238 
z"/>
<path fill="#FAEBB1" opacity="1.000000" stroke="none" 
	d="
M55.820915,46.761375 
	C54.956638,47.047169 53.927368,47.073845 52.344578,46.862961 
	C51.183868,46.414955 50.576679,46.204506 49.969486,45.994057 
	C51.021343,45.606403 52.073200,45.218746 53.478996,44.848099 
	C54.440598,45.410828 55.048260,45.956547 55.820915,46.761375 
z"/>
<path fill="#FBF6CD" opacity="1.000000" stroke="none" 
	d="
M49.899849,46.366867 
	C50.576679,46.204506 51.183868,46.414955 51.960957,46.908733 
	C51.609982,47.746548 51.089111,48.301029 50.288818,48.925301 
	C49.949673,48.243286 49.889942,47.491478 49.899849,46.366867 
z"/>
<path fill="#FAEBB1" opacity="1.000000" stroke="none" 
	d="
M54.258163,43.512146 
	C55.012417,43.171741 55.674812,43.099167 56.669422,43.073868 
	C56.174435,43.726589 55.347233,44.332047 54.194801,44.905067 
	C53.968487,44.508411 54.067390,44.144196 54.258163,43.512146 
z"/>
<path fill="#FAEBB1" opacity="1.000000" stroke="none" 
	d="
M64.883636,54.956287 
	C64.883636,54.956287 64.434280,55.024643 63.905067,55.011513 
	C62.958237,54.898579 62.540627,54.798771 62.123016,54.698959 
	C60.147648,52.352673 58.172276,50.006390 56.089336,47.339989 
	C61.218937,44.223263 62.813183,48.119503 64.838074,52.253578 
	C65.025650,53.523781 64.954643,54.240036 64.883636,54.956287 
z"/>
<path fill="#F6CE12" opacity="1.000000" stroke="none" 
	d="
M65.253914,54.910652 
	C64.954643,54.240036 65.025650,53.523781 65.138000,52.450306 
	C65.492050,51.306225 65.804756,50.519367 66.174316,49.400597 
	C66.028854,51.000797 65.826523,52.932903 65.253914,54.910652 
z"/>
<path fill="#F7CA17" opacity="1.000000" stroke="none" 
	d="
M82.927567,55.504589 
	C82.159378,55.598434 81.430519,55.329601 80.026817,55.031792 
	C77.572495,54.328358 75.793022,53.653904 74.013550,52.979450 
	C73.374084,51.873219 72.734619,50.766991 72.051086,49.333012 
	C73.168388,48.981216 74.329765,48.957172 75.932327,48.871338 
	C77.998695,49.519825 79.623856,50.230106 81.602814,50.970692 
	C82.293373,52.381298 82.630142,53.761604 82.927567,55.504589 
z"/>
<path fill="#F4CF14" opacity="1.000000" stroke="none" 
	d="
M81.684525,71.562759 
	C82.350822,73.039047 82.685501,74.607864 82.984978,76.570343 
	C81.081360,78.817924 79.212936,80.671844 77.176193,82.826714 
	C71.715546,84.440727 69.960297,79.509903 65.800232,76.206116 
	C65.800232,79.539543 65.800232,81.823433 65.800232,84.898598 
	C63.723492,84.898598 61.843121,84.898598 59.544209,84.838318 
	C59.125671,84.778046 59.018070,84.411812 58.967056,84.227936 
	C59.942165,82.587898 61.682892,81.210518 61.853798,79.660080 
	C62.281803,75.777412 61.998474,71.816338 61.999737,67.475861 
	C62.729710,67.099762 63.460449,67.134521 64.838547,67.374863 
	C68.311523,67.297211 71.137154,67.013977 73.962776,66.730743 
	C76.426147,68.372261 78.889519,70.013771 81.684525,71.562759 
z"/>
<path fill="#F2D505" opacity="1.000000" stroke="none" 
	d="
M73.674149,52.990395 
	C75.793022,53.653904 77.572495,54.328358 79.730911,55.025398 
	C78.728462,57.120720 77.347069,59.193459 75.971321,61.627838 
	C75.496429,62.317623 75.015892,62.645767 73.891434,63.030437 
	C72.501122,63.027012 71.754745,62.967052 71.008369,62.907097 
	C72.287735,60.024925 75.268166,57.233173 71.477501,54.081501 
	C72.096581,53.721451 72.715668,53.361397 73.674149,52.990395 
z"/>
<path fill="#F6CE12" opacity="1.000000" stroke="none" 
	d="
M63.991570,62.972076 
	C64.482170,61.150932 64.972778,59.329792 65.463379,57.508648 
	C65.810188,57.423054 66.156990,57.337456 66.503792,57.251862 
	C67.002922,58.871910 67.502060,60.491962 67.601395,62.513168 
	C66.131584,62.933582 65.061577,62.952831 63.991570,62.972076 
z"/>
<path fill="#EEE8A0" opacity="1.000000" stroke="none" 
	d="
M63.971954,63.213024 
	C65.061577,62.952831 66.131584,62.933582 67.603004,62.894913 
	C68.756302,62.925148 69.508179,62.974796 70.634216,62.965771 
	C71.754745,62.967052 72.501122,63.027012 73.618484,63.139832 
	C72.904579,63.468204 71.819695,63.743710 70.381577,64.027428 
	C68.256256,64.012825 66.484177,63.989994 64.267532,63.943504 
	C63.822983,63.919834 63.952343,63.453968 63.971954,63.213024 
z"/>
<path fill="#F6CE12" opacity="1.000000" stroke="none" 
	d="
M62.111336,55.015350 
	C62.540627,54.798771 62.958237,54.898579 63.688026,55.078918 
	C63.702457,55.638130 63.404705,56.116810 63.106949,56.595486 
	C62.771183,56.174236 62.435417,55.752983 62.111336,55.015350 
z"/>
<path fill="#EEE8A0" opacity="1.000000" stroke="none" 
	d="
M73.705353,66.508766 
	C71.137154,67.013977 68.311523,67.297211 65.205002,67.365562 
	C66.363358,66.762337 67.802605,66.373993 69.642563,65.971649 
	C71.178154,66.067360 72.313042,66.177078 73.705353,66.508766 
z"/>
</svg>