 <svg  version="1.0" xmlns="http://www.w3.org/2000/svg"  width="128.000000pt" height="128.000000pt" viewBox="0 0 128.000000 128.000000"  preserveAspectRatio="xMidYMid meet">  <g transform="translate(0.000000,128.000000) scale(0.100000,-0.100000)" fill="#f2d701" stroke="none"> <path d="M491 913 c-37 -18 -71 -66 -71 -100 0 -33 14 -35 41 -7 31 33 64 50 116 59 53 8 63 23 33 47 -28 22 -74 23 -119 1z m59 -21 c0 -10 -68 -41 -75 -34 -3 4 9 14 27 24 37 19 48 22 48 10z"/> <path d="M670 912 c-30 -24 -20 -38 32 -46 38 -6 87 -35 128 -74 12 -13 15 -12 24 7 22 51 -59 131 -132 131 -17 0 -40 -8 -52 -18z m109 -21 c9 -6 10 -11 2 -15 -15 -10 -53 3 -46 15 8 11 26 11 44 0z"/> <path d="M583 843 c-9 -3 -6 -13 9 -34 25 -34 38 -37 38 -10 0 44 -15 58 -47 44z"/> <path d="M661 841 c-8 -5 -11 -36 -9 -97 l3 -89 37 -1 c28 -1 41 4 52 21 8 12 29 36 46 54 26 26 30 34 20 46 -31 38 -126 80 -149 66z m99 -50 c19 -19 22 -41 4 -41 -9 0 -12 -4 -9 -10 3 -5 -8 -24 -25 -42 -39 -41 -51 -28 -48 55 l1 57 31 -2 c17 -1 38 -9 46 -17z"/> <path d="M483 788 l-31 -33 16 -51 17 -50 65 1 65 1 3 43 c3 38 -1 47 -35 82 -21 21 -45 39 -54 39 -8 0 -29 -15 -46 -32z m89 -32 c32 -40 31 -68 -3 -72 -41 -5 -78 6 -73 21 3 7 1 16 -5 20 -19 11 17 64 44 65 6 0 22 -15 37 -34z"/> <path d="M378 743 c-44 -50 -49 -104 -17 -170 26 -54 47 -55 77 -3 12 22 27 40 32 40 6 0 10 5 10 10 0 6 -7 10 -15 10 -9 0 -15 9 -15 25 0 28 -36 105 -49 105 -4 0 -15 -8 -23 -17z m38 -60 c4 -16 6 -34 5 -42 -1 -8 3 -18 11 -22 10 -6 9 -12 -7 -23 -11 -9 -25 -16 -31 -16 -13 0 -28 46 -19 60 3 4 0 10 -7 12 -7 3 -9 12 -5 22 4 9 11 14 17 11 5 -3 10 1 10 9 0 26 17 18 26 -11z"/> <path d="M844 723 c-22 -46 -22 -118 0 -161 20 -39 38 -40 65 -6 41 52 35 140 -12 184 -28 27 -32 26 -53 -17z m55 -58 c9 -33 -4 -85 -21 -85 -10 0 -20 37 -20 75 0 64 24 70 41 10z"/> <path d="M787 686 c-10 -15 -16 -30 -13 -34 11 -10 38 25 34 44 -3 15 -6 14 -21 -10z"/> <path d="M522 613 c-28 -14 -72 -61 -72 -78 0 -18 73 -75 109 -85 69 -19 68 -20 67 81 l-1 91 -38 3 c-20 1 -50 -4 -65 -12z m70 -28 c9 -12 10 -62 2 -92 -8 -30 -49 -31 -64 -2 -9 16 -14 18 -26 8 -25 -20 -18 49 8 76 22 23 67 29 80 10z"/> <path d="M660 622 c-5 -2 -10 -23 -10 -46 0 -34 7 -50 38 -85 28 -32 43 -42 53 -36 40 25 79 62 79 77 0 27 -86 93 -120 93 -17 0 -34 -1 -40 -3z m80 -40 c3 -8 8 -12 11 -10 7 4 39 -28 39 -40 0 -13 -20 -28 -47 -36 -15 -5 -27 0 -42 15 -19 21 -28 68 -16 81 10 10 50 3 55 -10z"/> <path d="M424 486 c-29 -75 107 -169 173 -120 34 26 33 36 -2 46 -64 18 -100 31 -105 37 -3 3 -17 17 -32 30 -24 21 -28 22 -34 7z"/> <path d="M816 475 c-37 -34 -76 -53 -125 -61 -49 -8 -53 -27 -11 -49 36 -19 50 -19 97 0 41 17 83 68 83 103 0 32 -15 34 -44 7z"/> <path d="M650 468 c0 -31 17 -45 33 -29 8 8 5 17 -11 33 l-22 22 0 -26z"/> </g> </svg> 